<svg xmlns="http://www.w3.org/2000/svg" xmlns:xlink="http://www.w3.org/1999/xlink" width="500" zoomAndPan="magnify" viewBox="0 0 375 374.999991" height="500" preserveAspectRatio="xMidYMid meet" version="1.0"><defs><clipPath id="27bba088b6"><path d="M 39.570312 39.570312 L 335.070312 39.570312 L 335.070312 335 L 39.570312 335 Z M 39.570312 39.570312 " clip-rule="nonzero"/></clipPath></defs><g clip-path="url(#27bba088b6)"><path fill="#ffffff" d="M 261.746094 142.085938 C 258.140625 136.195312 253.832031 130.65625 248.910156 125.820312 C 233.171875 110.082031 211.367188 100.324219 187.363281 100.324219 C 163.363281 100.324219 141.558594 110.082031 125.820312 125.820312 C 116.414062 135.226562 109.203125 146.746094 104.808594 159.582031 L 201.785156 178.574219 L 208.730469 179.890625 L 286.273438 195.015625 L 296.914062 197.125 C 294.539062 223.589844 282.847656 247.328125 265.175781 265.085938 C 245.304688 284.957031 217.785156 297.265625 187.453125 297.265625 C 147.710938 297.265625 111.402344 282.144531 84.058594 257.4375 L 84.058594 257.347656 C 107.269531 291.636719 145.953125 312.210938 187.453125 312.210938 C 221.917969 312.210938 253.128906 298.230469 275.726562 275.636719 C 298.320312 253.042969 312.300781 221.828125 312.300781 187.363281 C 312.300781 184.816406 312.210938 182.351562 312.125 179.890625 L 296.914062 176.902344 L 273.261719 172.242188 L 195.101562 156.945312 L 332.082031 156.945312 C 334.105469 166.703125 335.160156 176.902344 335.160156 187.277344 C 335.160156 228.070312 318.628906 265 291.902344 291.726562 C 265.175781 318.453125 228.246094 334.984375 187.453125 334.984375 C 146.65625 334.984375 109.730469 318.453125 83.003906 291.726562 C 66.648438 275.371094 54.078125 255.152344 46.78125 232.554688 C 66.824219 232.554688 86.871094 232.554688 106.917969 232.554688 L 113.070312 232.554688 C 116.675781 238.445312 120.984375 243.984375 125.910156 248.820312 C 141.644531 264.558594 163.449219 274.316406 187.453125 274.316406 C 211.453125 274.316406 233.257812 264.558594 248.996094 248.820312 C 258.40625 239.414062 265.613281 227.894531 269.921875 215.058594 L 178.835938 197.300781 L 166 194.75 L 88.453125 179.628906 L 77.816406 177.519531 C 80.101562 151.054688 91.882812 127.316406 109.554688 109.554688 C 129.425781 89.683594 156.945312 77.375 187.277344 77.375 C 227.015625 77.375 263.328125 92.5 290.671875 117.203125 C 286.1875 110.609375 281.175781 104.542969 275.636719 99.003906 C 253.042969 76.410156 221.828125 62.429688 187.363281 62.429688 C 152.898438 62.429688 121.6875 76.410156 99.09375 99.003906 C 76.496094 121.601562 62.519531 152.8125 62.519531 187.277344 C 62.519531 189.828125 62.605469 192.289062 62.695312 194.75 L 77.902344 197.738281 L 101.554688 202.398438 L 179.714844 217.699219 C 134.085938 217.699219 88.367188 217.699219 42.734375 217.699219 C 40.714844 207.9375 39.660156 197.738281 39.660156 187.363281 C 39.660156 146.570312 56.1875 109.644531 82.914062 82.914062 C 109.644531 56.1875 146.570312 39.660156 187.363281 39.660156 C 228.160156 39.660156 265.085938 56.1875 291.8125 82.914062 C 308.167969 99.269531 320.738281 119.492188 328.039062 142.085938 C 305.96875 142.085938 283.8125 142.085938 261.746094 142.085938 Z M 261.746094 142.085938 " fill-opacity="1" fill-rule="nonzero"/></g></svg>