<svg width="676" height="183" viewBox="0 0 676 183" fill="none" xmlns="http://www.w3.org/2000/svg">
<path d="M103.772 21.6938C103.441 23.7349 101.181 24.8496 99.2485 24.1142C93.9181 22.0861 87.3205 21.072 79.4558 21.072C64.1672 21.072 56.5228 27.216 56.5228 39.504C56.5228 45.392 61.2858 51.6 70.8118 58.128C78.6914 63.632 84.8657 67.984 89.3347 71.184C93.8037 74.384 96.5086 76.496 97.4494 77.52C106.975 86.608 111.738 97.104 111.738 109.008C111.738 122.32 107.034 132.752 97.6258 140.304C89.6287 146.704 80.0439 149.904 68.8714 149.904C58.4635 149.904 48.872 147.96 40.0971 144.072C38.937 143.558 38.2671 142.342 38.4028 141.08L39.9637 126.574C40.1991 124.387 42.6382 123.179 44.6052 124.163C52.2977 128.012 60.6217 129.936 69.577 129.936C85.2185 129.936 93.0392 122.448 93.0392 107.472C93.0392 101.584 88.2762 95.184 78.7502 88.272C70.165 82 63.6379 77.2 59.1689 73.872C54.8175 70.544 52.4654 68.752 52.1126 68.496C42.7042 59.664 38 50 38 39.504C38 27.6 42.2338 18.064 50.7014 10.896C58.3457 4.49599 67.9893 1.296 79.6322 1.296C88.4036 1.296 96.5425 2.67258 104.049 5.42574C105.359 5.90613 106.112 7.26263 105.888 8.63976L103.772 21.6938Z" fill="white"/>
<path d="M304.683 143.256C304.683 144.913 303.34 146.256 301.683 146.256H288.278C286.621 146.256 285.278 144.913 285.278 143.256V7.17599C285.278 5.51914 286.621 4.17599 288.278 4.17599H301.683C303.34 4.17599 304.683 5.51914 304.683 7.17599V143.256Z" fill="white"/>
<path d="M411.52 20.184C411.52 21.8408 410.177 23.184 408.52 23.184H378.709C377.052 23.184 375.709 24.5271 375.709 26.184V143.256C375.709 144.913 374.366 146.256 372.709 146.256H359.481C357.824 146.256 356.481 144.913 356.481 143.256V26.184C356.481 24.5271 355.138 23.184 353.481 23.184H323.846C322.19 23.184 320.846 21.8408 320.846 20.184V7.17599C320.846 5.51914 322.19 4.17599 323.846 4.17599H408.52C410.177 4.17599 411.52 5.51914 411.52 7.17599V20.184Z" fill="white"/>
<path d="M507.648 20.184C507.648 21.8408 506.305 23.184 504.648 23.184H474.838C473.181 23.184 471.838 24.5271 471.838 26.184V143.256C471.838 144.913 470.495 146.256 468.838 146.256H455.609C453.952 146.256 452.609 144.913 452.609 143.256V26.184C452.609 24.5271 451.266 23.184 449.609 23.184H419.975C418.318 23.184 416.975 21.8408 416.975 20.184V7.17599C416.975 5.51914 418.318 4.17599 419.975 4.17599H504.648C506.305 4.17599 507.648 5.51914 507.648 7.17599V20.184Z" fill="white"/>
<path d="M592.801 90.576C594.88 90.576 596.329 88.5129 595.623 86.5575L578.538 39.2255C577.586 36.5872 573.857 36.5823 572.897 39.218L555.672 86.55C554.959 88.5067 556.408 90.576 558.491 90.576H592.801ZM636.538 143C637.249 144.956 635.8 147.024 633.718 147.024H619.634C618.375 147.024 617.249 146.237 616.817 145.054L604.85 112.322C604.417 111.139 603.292 110.352 602.032 110.352H549.062C547.807 110.352 546.684 111.133 546.248 112.31L534.115 145.066C533.68 146.243 532.557 147.024 531.302 147.024H517.43C515.336 147.024 513.886 144.933 514.62 142.972L566.002 5.74006C566.441 4.5684 567.56 3.79199 568.811 3.79199H583.858C585.12 3.79199 586.247 4.58156 586.677 5.76753L636.538 143Z" fill="white"/>
<path d="M234.187 145.585C235.02 147.053 236.904 147.549 238.313 146.62C251.815 137.714 262.317 124.676 268.32 109.295C274.704 92.9388 275.64 74.8596 270.98 57.8956C266.321 40.9315 256.33 26.0433 242.576 15.5682C228.822 5.09307 212.084 -0.375825 194.99 0.0200772C177.895 0.41598 161.412 6.65426 148.129 17.7556C134.845 28.8569 125.512 44.1926 121.596 61.3553C117.68 78.5179 119.402 96.5356 126.492 112.58C133.159 127.667 144.218 140.206 158.094 148.478C159.543 149.342 161.4 148.762 162.167 147.26L172.081 127.844C172.821 126.395 172.265 124.628 170.883 123.768C162.258 118.406 155.382 110.469 151.187 100.977C146.59 90.5741 145.474 78.892 148.013 67.7642C150.552 56.6365 156.603 46.6932 165.216 39.4955C173.829 32.2977 184.516 28.253 195.599 27.9963C206.683 27.7396 217.535 31.2855 226.453 38.0773C235.37 44.869 241.848 54.5221 244.869 65.5211C247.89 76.52 247.284 88.2421 243.144 98.847C239.366 108.527 232.84 116.775 224.455 122.532C223.114 123.452 222.639 125.24 223.441 126.654L234.187 145.585Z" fill="url(#paint0_linear_1_5)"/>
<path d="M0 166H676V183H0V166Z" fill="white"/>
<defs>
<linearGradient id="paint0_linear_1_5" x1="91.8734" y1="91.5" x2="265.782" y2="91.5" gradientUnits="userSpaceOnUse">
<stop stop-color="#00E0FF"/>
<stop offset="1" stop-color="#ED00D5"/>
</linearGradient>
</defs>
</svg>
